<svg xmlns="http://www.w3.org/2000/svg" viewBox="0 0 64 64" width="64" height="64">
  <!-- Tomato body -->
  <circle cx="32" cy="36" r="22" fill="#CC2200"/>
  <!-- Tomato stem/top -->
  <path d="M32 14 C32 14 28 8 24 10 C20 12 22 18 26 16 C28 15 30 14 32 14Z" fill="#2D6A2D"/>
  <path d="M32 14 C32 14 36 8 40 10 C44 12 42 18 38 16 C36 15 34 14 32 14Z" fill="#2D6A2D"/>
  <rect x="31" y="10" width="2" height="6" fill="#2D6A2D"/>
  <!-- Storm swirl overlay (radar) -->
  <path d="M22 32 Q26 24 32 28 Q38 32 34 38 Q30 44 24 40" stroke="#00B4D8" stroke-width="2.5" fill="none" stroke-linecap="round" opacity="0.8"/>
  <circle cx="32" cy="32" r="3" fill="#00B4D8" opacity="0.9"/>
</svg>
